PathFileType	4	(X/Y/Z)	Kaydara	
DataRate	CameraRate	NumFrames	NumMarkers	Units	OrigDataRate	OrigDataStartFrame	OrigNumFrames	
240.00	240.00	4	72	mm	240.00	178	355	
Frame#	Time	Hips			RightUpLeg			RightLeg			RightFoot			RightFoot_End			LeftUpLeg			LeftLeg			LeftFoot			LeftFoot_End			Spine			Spine1			Spine2			Spine3			Neck			Head			Head_End			RightShoulder			RightArm			RightForeArm			RightHand			RightHandThumb1			RightHandThumb2			RightHandThumb3			RightHandThumb3_End			RightInHandIndex			RightHandIndex1			RightHandIndex2			RightHandIndex3			RightHandIndex3_End			RightInHandMiddle			RightHandMiddle1			RightHandMiddle2			RightHandMiddle3			RightHandMiddle3_End			RightInHandRing			RightHandRing1			RightHandRing2			RightHandRing3			RightHandRing3_End			RightInHandPinky			RightHandPinky1			RightHandPinky2			RightHandPinky3			RightHandPinky3_End			LeftShoulder			LeftArm			LeftForeArm			LeftHand			LeftHandThumb1			LeftHandThumb2			LeftHandThumb3			LeftHandThumb3_End			LeftInHandIndex			LeftHandIndex1			LeftHandIndex2			LeftHandIndex3			LeftHandIndex3_End			LeftInHandMiddle			LeftHandMiddle1			LeftHandMiddle2			LeftHandMiddle3			LeftHandMiddle3_End			LeftInHandRing			LeftHandRing1			LeftHandRing2			LeftHandRing3			LeftHandRing3_End			LeftInHandPinky			LeftHandPinky1			LeftHandPinky2			LeftHandPinky3			LeftHandPinky3_End			
		X1	Y1	Z1	X2	Y2	Z2	X3	Y3	Z3	X4	Y4	Z4	X5	Y5	Z5	X6	Y6	Z6	X7	Y7	Z7	X8	Y8	Z8	X9	Y9	Z9	X10	Y10	Z10	X11	Y11	Z11	X12	Y12	Z12	X13	Y13	Z13	X14	Y14	Z14	X15	Y15	Z15	X16	Y16	Z16	X17	Y17	Z17	X18	Y18	Z18	X19	Y19	Z19	X20	Y20	Z20	X21	Y21	Z21	X22	Y22	Z22	X23	Y23	Z23	X24	Y24	Z24	X25	Y25	Z25	X26	Y26	Z26	X27	Y27	Z27	X28	Y28	Z28	X29	Y29	Z29	X30	Y30	Z30	X31	Y31	Z31	X32	Y32	Z32	X33	Y33	Z33	X34	Y34	Z34	X35	Y35	Z35	X36	Y36	Z36	X37	Y37	Z37	X38	Y38	Z38	X39	Y39	Z39	X40	Y40	Z40	X41	Y41	Z41	X42	Y42	Z42	X43	Y43	Z43	X44	Y44	Z44	X45	Y45	Z45	X46	Y46	Z46	X47	Y47	Z47	X48	Y48	Z48	X49	Y49	Z49	X50	Y50	Z50	X51	Y51	Z51	X52	Y52	Z52	X53	Y53	Z53	X54	Y54	Z54	X55	Y55	Z55	X56	Y56	Z56	X57	Y57	Z57	X58	Y58	Z58	X59	Y59	Z59	X60	Y60	Z60	X61	Y61	Z61	X62	Y62	Z62	X63	Y63	Z63	X64	Y64	Z64	X65	Y65	Z65	X66	Y66	Z66	X67	Y67	Z67	X68	Y68	Z68	X69	Y69	Z69	X70	Y70	Z70	X71	Y71	Z71	X72	Y72	Z72	

178	0.738	4921.0129	906.651	56.2195	4969.226384119804	878.8522968209985	-6.296910647739899	4892.936691310999	474.2509659074232	-79.31375070113718	4922.120108979297	101.52332880856177	-172.15806986147985	4847.894698979544	23.370828624405604	-14.354335401567964	4880.199015984785	905.6454733834931	130.50746935104954	4823.392125707622	503.4597544818579	232.26523093565405	4761.927031470357	73.00449990749156	296.5294964681421	4635.078645705738	-8.375655808461355	179.4304092112549	4886.242206643602	1035.6489626671719	5.312609560649406	4838.740837416921	1105.9455921052854	-41.497972677761595	4783.844758329049	1173.688229012554	-91.91342337544786	4723.499954168044	1229.167233074358	-142.7739890860491	4658.385778502343	1288.3217704332337	-196.42814024741	4597.979751682757	1342.0781373577672	-244.2594902278086	4475.509474208624	1433.2214515002008	-289.0977248256436	4693.8944387903675	1263.5123485811453	-200.19769728029647	4730.931149992698	1242.2746362118028	-296.74424362051735	4732.907273703367	1016.5361318964967	-254.73886680261035	4746.075263964817	876.7393215498246	-289.5459020955637	4744.780930361403	872.974087307944	-306.7219818963381	4729.263083778336	868.2902433705823	-313.1839407912242	4719.140347265153	863.5038001120686	-315.6866804358704	4711.286512434347	858.2092813590541	-316.0644091537237	4748.793851987252	866.6410451743197	-301.83255695616907	4748.208211691774	847.8149384581076	-310.1927043316948	4738.826330681068	837.5034712467469	-312.29961064081493	4727.555938006673	835.3268566795784	-312.55085320998086	4714.559554574083	836.3812502370183	-312.04473295102923	4750.247755740164	863.2821952418955	-295.9326661661046	4750.465518660086	843.1021757767178	-300.8967064652432	4740.410547845827	831.4716722834983	-302.3855299107184	4726.900808551001	828.6639797233317	-302.29983657618686	4712.72298128604	829.7293538947164	-301.5570338203813	4751.385363028582	861.3475399844217	-291.577342623591	4752.8473925857115	841.459799868203	-292.3222870243029	4744.268610040835	830.9678661534941	-292.783700354033	4731.3357153650595	828.0712441299445	-292.25694130950455	4718.05157059209	828.9837010695536	-291.3480698327356	4751.961333896422	859.9943239810715	-286.10830944903984	4753.977572337004	840.7720149536284	-283.5108380969284	4747.389796686797	831.9040607408195	-282.57222973201647	4738.092802900179	829.5656396848176	-281.5552426520942	4726.403659828586	830.2440854055602	-280.3859637094883	4665.974264473882	1274.6207331058044	-155.78936881740697	4631.06637402299	1249.3240807626207	-60.90220008501612	4703.23818344174	1052.9501777716514	-148.30838820083633	4781.556240852757	900.8716845720435	-210.66691680602358	4765.238678289317	899.7854954641911	-226.0139776766414	4758.980606280666	887.2584258642992	-253.51735739410788	4756.015947516417	876.5656615774247	-272.61038148811457	4754.736512290399	865.9672196483455	-288.47579594665723	4767.907905894702	893.0736106987698	-226.21833145713458	4755.807683813167	871.9220682598805	-254.0387894047641	4751.814484727053	854.8215177233604	-278.6735731073646	4751.565933060283	846.1282283911446	-294.77455997376154	4752.867126548527	840.2401117158869	-308.63122154230365	4772.329499948203	888.3415129692111	-225.33662740049616	4762.917687090228	865.1520205063251	-251.9934484608415	4759.188508552297	845.9331634500502	-278.67490533136544	4759.190103027163	835.1769036600475	-298.0041858640724	4760.760394585083	828.6038959360768	-313.11922874376614	4775.723880469492	885.5451388058098	-223.95535422851856	4770.123662315462	862.3560341533145	-246.5044911600244	4767.53063613741	845.0701697351417	-269.5142641625787	4767.88126321134	834.4109849809106	-288.0283108889061	4769.523164635116	828.0961602654136	-302.17838212434555	4780.287996403558	882.879026878163	-221.9387721936262	4777.83300037244	859.9834605097208	-241.22401833630622	4776.806827456017	845.4085575412637	-259.1678052474895	4777.570608025235	837.2791169334672	-272.4390683476702	4779.317442560676	831.4811418748862	-284.83965974792176
179	0.742	4921.0129	906.651	56.2195	4969.056839723023	878.7843060171665	-6.230821641567571	4892.601546553697	474.2266969863986	-79.24420146103793	4922.1078796636375	101.51374109937093	-172.09705140461506	4847.887386001647	23.344580947477507	-14.299593388679588	4880.337145060266	905.7114072629372	130.4565151976287	4823.768744761895	503.5076666119158	232.26618402665383	4762.181463655485	73.03961295085175	296.35183104366905	4635.40599904824	-8.401859689972731	179.22487433445153	4886.387167672504	1035.660917992651	5.24404176973464	4838.928400289772	1106.0211488122457	-41.518177736104	4784.068943056435	1173.847906732054	-91.86020749069083	4723.744137052407	1229.4355622969015	-142.61535800031226	4658.65026257838	1288.7029935163125	-196.1569795905397	4598.265596360053	1342.5628929226566	-243.88544507421815	4475.789159859423	1433.7199374146721	-288.65194864117376	4694.054515528303	1263.8313806357783	-199.90758736878672	4730.5583336507925	1242.287095416838	-296.26031591547263	4732.6376084670155	1017.1815792671538	-254.35547020193266	4744.967104090554	878.0312728695051	-288.0357495841667	4743.741015482434	874.2519316579261	-304.95502128128203	4728.397694179569	869.379880749951	-311.22390554787694	4718.375476558655	864.4658615394352	-313.60686240488235	4710.587457411004	859.0679751386978	-313.8972867865136	4747.667646738891	867.9489549471436	-300.088683285229	4747.050953394121	849.078567898503	-308.1718553415913	4737.739329984969	838.6356303123364	-310.117822119641	4726.582575192237	836.3226226525293	-310.2960070398497	4713.727439600028	837.2272548317051	-309.74762801697	4749.069825205687	864.5963579198359	-294.2398566183337	4749.229295777939	844.3765598734207	-298.961354978779	4739.244380332978	832.6034389584959	-300.2822374189369	4725.868569652049	829.6315973058792	-300.11208598787493	4711.843751073148	830.5333022888282	-299.3248353875658	4750.170604746154	862.6682864313515	-289.9273957695166	4751.545274136426	842.7536432261909	-290.4913563067847	4743.020900225932	832.1383164332773	-290.81462260404	4730.213657847929	829.0838441976613	-290.21076836492466	4717.071706250446	829.8426403046379	-289.2621759888101	4750.713508795361	861.315779724968	-284.5180110382599	4752.625613401276	842.0726946467753	-281.7902794208481	4746.071417701728	833.1074656055208	-280.7546805150005	4736.861243388922	830.6546499601552	-279.68805435627536	4725.295279259916	831.1974042254052	-278.48738443300454	4666.333884709386	1274.9876314568082	-155.61665179522234	4631.799835526742	1250.017592005187	-60.96785518903213	4703.917923099426	1053.6546711045812	-147.68562020915164	4781.709946260701	901.8453078539881	-209.57335804424235	4765.571951088803	900.998034156434	-224.75333184426546	4759.377224621188	888.6989176904639	-251.96800583035483	4756.444693716454	878.1421516054053	-270.8709277048335	4755.181788551174	867.6376247432557	-286.5872321219276	4768.22557750966	894.2238405312377	-224.99496628733647	4756.284320056033	873.2694468015682	-252.59984722788369	4752.343575136383	856.3204181148571	-277.01330769524725	4752.093133527726	847.7324260018441	-292.9453661650209	4753.369490852967	841.9389484262064	-306.64107127759627	4772.606274064859	889.4236899077331	-224.14716573266696	4763.327405582793	866.3896761648075	-250.6120782983245	4759.649480346989	847.326558669578	-277.05711136322424	4759.645922720847	836.6927290920102	-296.18502532225676	4761.187642784788	830.2210338273129	-311.12513844734457	4775.968247817823	886.5739504647763	-222.79609953649913	4770.460634443772	863.4771149929289	-245.20167186496576	4767.905948449789	846.3169382953597	-268.01086718817925	4768.24824277084	835.7705070762253	-286.3335953180844	4769.86168623413	829.5484114027629	-300.3205700456602	4780.486123095773	883.8426288692676	-220.81464826262675	4778.089432806557	860.9906980364185	-239.99233195244813	4777.083674106563	846.500353032637	-257.784689502362	4777.836400589021	838.4453728363269	-270.9208476030131	4779.5551619165435	832.7250616134846	-283.1795192201079
180	0.746	4921.0129	906.651	56.2195	4968.901488821631	878.7214901838747	-6.160325837504992	4892.255634425734	474.2125254867895	-79.16743422289244	4922.119726286547	101.51390160223507	-172.02801304692207	4847.905006292125	23.329838239081905	-14.235501133980959	4880.462730359603	905.7733100114037	130.40270958735732	4824.125728746145	503.5512411632822	232.25790549382174	4762.433023362475	73.06849602280414	296.17285600859634	4635.7294724733765	-8.432146725357502	179.01773706620534	4886.524408066433	1035.6675752413166	5.168344908652678	4839.104954022586	1106.0879441276386	-41.54719484768762	4784.2803073829255	1173.9965120422146	-91.81673779063864	4723.976748891032	1229.693685964016	-142.466696795815	4658.904795107	1289.075146641058	-195.89620959606435	4598.543189718602	1343.0396923940405	-243.52241676873177	4476.067258975171	1434.2146916889706	-288.22560680739696	4694.206591338412	1264.1476676227333	-199.6242992109751	4730.136718290243	1242.253890522705	-295.7733883763151	4732.3240899635375	1017.78829003041	-253.9651782779411	4743.897984909925	879.3031767614294	-286.5781021643854	4742.758043191259	875.5334615191408	-303.2176484721006	4727.620196897764	870.4905889165403	-309.2939384321759	4717.720249932253	865.4587371690503	-311.5611006380397	4710.016349663861	859.9635837101868	-311.7706710007699	4746.599798360713	869.2544898208447	-298.38388716540356	4745.986376826439	850.3570448850057	-306.189632719328	4736.773914724026	839.7933650583191	-307.98238468390844	4725.74869601942	837.3505329963365	-308.0937856562675	4713.049574560603	838.1107726116071	-307.5093330163421	4747.949834802068	865.9010576320118	-292.5964597264813	4748.084265589258	845.654445706854	-297.0805640497577	4738.200785162756	833.7494211831125	-298.2433098812921	4724.9804198085785	830.6208789726581	-297.9969292506726	4711.124729575072	831.3645576648115	-297.17231930237307	4749.01257342097	863.9741234541167	-288.3341170167116	4750.328505216966	844.0394703610667	-288.72783627343404	4741.885675028688	833.3090536056436	-288.92289920538406	4729.224725053509	830.1033661905448	-288.2506296888521	4716.240068935399	830.7135467217175	-287.269333230771	4749.52035524799	862.6155439257398	-282.9932116449888	4751.353178772769	843.3538320708859	-280.150322842053	4744.853831026554	834.2963321687	-279.02783071330305	4735.745308298031	831.7331658513882	-277.9189293267424	4724.315773024625	832.1442400066077	-276.69367849916677	4666.680244711901	1275.3380417519952	-155.45762305328222	4632.519675152318	1250.677918862641	-61.0639124369556	4704.645684771569	1054.3596562475095	-147.0877033941124	4781.866690865134	902.8309583780425	-208.6288530760356	4765.925496036055	902.2373605439996	-223.6339466493484	4759.782965737962	890.1644670183316	-250.5462772314566	4756.870508302425	879.7417209063042	-269.25004996655707	4755.610414017161	869.3287983546634	-284.8100876011546	4768.551407477582	895.401122472411	-223.91437972629006	4756.753734416928	874.6566843721721	-251.2930847029184	4752.845747987466	857.8591031659362	-275.4745422613892	4752.580923643122	849.3710653954552	-291.2296748764979	4753.82193720775	843.6642319029107	-304.75688804685194	4772.879646393733	890.5299426401438	-223.10191948394896	4763.712470545721	867.6622917832614	-249.36536375302344	4760.06282002532	848.754387230983	-275.56253921618486	4760.038324798995	838.2363281057483	-294.4795434187226	4761.539629360619	831.8570933349191	-309.2365329199668	4776.201498815318	887.6244970942565	-221.78238021214796	4770.760923784501	864.6279128341625	-244.0370668778324	4768.223063042855	847.5924913738811	-266.63595812582736	4768.541008702285	837.1521383841307	-284.7582896455198	4770.114483694267	831.0143295083212	-298.5745237880755	4780.664213295737	884.8241977979737	-219.83761722395377	4778.297077185465	862.0212024762494	-238.9020957761104	4777.2922959569805	847.6138946319879	-256.53564057407596	4778.0212179891305	839.6281313699532	-269.53026813373344	4779.701094886674	833.9777900189924	-281.6403613385337
181	0.75	4921.0129	906.651	56.2195	4968.759317554935	878.6633822880538	-6.086635201416299	4891.899854815521	474.2073095492715	-79.08327528290357	4922.158067240522	101.52361519774634	-171.95246665080347	4847.949984373832	23.326480943502705	-14.16352573866712	4880.576891769207	905.8316277960084	130.34714499440966	4824.46292695757	503.5912474421229	232.24208164264496	4762.680942565043	73.091997819633	295.9941179691979	4636.048368675775	-8.465851250604615	178.81056847415354	4886.6534770926255	1035.669040675271	5.08609309243084	4839.2697998862395	1106.1459729902301	-41.584355396255546	4784.477905524514	1174.1338562060205	-91.7823228229487	4724.196633450198	1229.9411274363472	-142.3274032120561	4659.147992694123	1289.4374484231219	-195.6453165095783	4598.8109509624155	1343.5074927339786	-243.1699605190999	4476.341981912663	1434.7046460700717	-287.8178321120082	4694.349216430913	1264.4601012644782	-199.34762356818652	4729.663992017796	1242.1728645905348	-295.28126843275845	4731.963935776046	1018.3531551107393	-253.56337921788716	4742.867498116355	880.5539653638502	-285.1712480512468	4741.831610591452	876.8184867767479	-301.50852904415933	4726.929808459749	871.6231963726063	-307.3931847790775	4717.173612265299	866.483964080529	-309.5489526030548	4709.571901954239	860.8982341888309	-309.6845295942024	4745.5899180404285	870.5575387059512	-296.7171729308865	4745.0139369160515	851.651711956783	-304.24631886860374	4735.929231882471	840.9790225860085	-305.8943396820218	4725.053164198299	838.4134433395468	-305.94546789412095	4712.5245267542905	839.0350018647638	-305.33116527710933	4746.887373702535	867.1961302210514	-291.00164136388173	4747.029853002829	846.9370582403636	-295.25483355645986	4737.278848571326	834.9119283733168	-296.2700923416074	4724.235102223452	831.6347420341316	-295.9560060906887	4710.564335051701	832.2264095242682	-295.1011713743867	4747.910848608835	865.2648126628318	-286.79675583964075	4749.196515520102	845.3182244138599	-287.0322506205429	4740.862066485614	834.4819518469415	-287.1098057599889	4728.367716826801	831.1322631176176	-286.3780932267687	4715.555152339813	831.5992197164406	-285.37115667509585	4748.38143090359	863.8932477246362	-281.53320361683336	4750.159681629892	844.6160632899191	-278.59146326762175	4743.736208275115	835.4720147567289	-277.3927955629004	4734.743925385445	832.8029506938005	-276.24920485490753	4723.463796787456	833.0866553330839	-275.00623005977064	4667.01219660537	1275.6717374302818	-155.31140034339523	4633.224822874771	1251.3055569394337	-61.18841394285769	4705.418329782207	1055.063680586874	-146.51346566834388	4782.0228474601345	903.826990853469	-207.83016720314143	4766.295100916914	903.5015918697626	-222.65307190426628	4760.1933417457485	891.6532080040213	-249.2495703236996	4757.2887516056735	881.3625796033621	-267.7451738440564	4756.0176568688985	871.0390688518681	-283.14174457827863	4768.881246032649	896.6037747269451	-222.97360616200316	4757.211248700244	876.0823133511774	-250.11559459858427	4753.316106714993	859.43629361109	-274.05432661879877	4753.024361328459	851.0429370748016	-289.62452141377224	4754.219546741189	845.4147784685532	-302.9757033783781	4773.145601981899	891.6587583729411	-222.19770798634556	4764.0684244904905	868.9686548738114	-248.25006480066122	4760.423851503619	850.2156638301227	-274.18787332023567	4760.3625877169725	839.8068099588152	-292.8843933260615	4761.811662751887	833.511217021637	-307.45005451311687	4776.419725881636	888.6953798989647	-220.910862517426	4771.020315385579	865.8073971568609	-243.00715743808712	4768.477595272857	848.8960181258864	-265.38592315627983	4768.755143578873	838.5551707739348	-283.298734386448	4770.2771730248605	832.4932432137131	-296.9365663420206	4780.81850918891	885.8224595554863	-219.00416440967348	4778.451981375517	863.0741146504008	-237.94951511570372	4777.428638848298	848.748531250003	-255.4167428780607	4778.120998532463	840.8268319349701	-268.26335938688976	4779.751218823892	835.238808019182	-280.2181875624002
